<svg xmlns="http://www.w3.org/2000/svg" width="23" height="34" viewBox="0 0 23 34" fill="none">
<path d="M0.133974 31.6769C-0.142168 32.1552 0.0217081 32.7668 0.500001 33.0429C0.978294 33.3191 1.58988 33.1552 1.86603 32.6769L1 32.1769L0.133974 31.6769ZM19.9659 0.74118C19.8229 0.207714 19.2746 -0.108868 18.7411 0.0340745L10.0478 2.36346C9.51434 2.5064 9.19776 3.05474 9.3407 3.5882C9.48364 4.12167 10.032 4.43825 10.5654 4.29531L18.2928 2.22475L20.3634 9.95215C20.5064 10.4856 21.0547 10.8022 21.5882 10.6593C22.1216 10.5163 22.4382 9.96798 22.2953 9.43451L19.9659 0.74118ZM1 32.1769L1.86603 32.6769L19.866 1.5L19 1L18.1339 0.500001L0.133974 31.6769L1 32.1769Z" fill="#FF1FB3" fill-opacity="0.36"/>
</svg>
