<svg width="24" height="24" viewBox="0 0 24 24" fill="none" xmlns="http://www.w3.org/2000/svg">
<path d="M14.2888 8.30282L5.88878 16.5528C5.6784 16.7595 5.39527 16.8753 5.10034 16.8753C4.80541 16.8753 4.52228 16.7595 4.3119 16.5528L0.711904 13.0175C0.606456 12.914 0.522435 12.7907 0.464637 12.6547C0.406839 12.5187 0.376396 12.3726 0.375047 12.2248C0.372322 11.9264 0.488266 11.6391 0.697372 11.4261C0.800911 11.3207 0.924206 11.2366 1.06022 11.1788C1.19623 11.121 1.34229 11.0906 1.49007 11.0892C1.78851 11.0865 2.07582 11.2025 2.28878 11.4116L5.10128 14.1734L12.7128 6.69782C12.9257 6.48872 13.2129 6.37272 13.5112 6.37536C13.8096 6.378 14.0947 6.49905 14.3038 6.71189C14.5129 6.92472 14.6289 7.21191 14.6262 7.51027C14.6236 7.80863 14.5026 8.09372 14.2897 8.30282H14.2888ZM23.3028 6.70907C23.1993 6.60327 23.0758 6.51895 22.9396 6.46096C22.8033 6.40297 22.657 6.37244 22.5089 6.37114C22.3608 6.36983 22.2139 6.39777 22.0767 6.45335C21.9395 6.50892 21.8145 6.59105 21.7091 6.69501L14.1003 14.1734L13.3616 13.4478C13.1488 13.2387 12.8616 13.1227 12.5632 13.1254C12.2649 13.128 11.9798 13.249 11.7707 13.4619C11.5615 13.6747 11.4456 13.9619 11.4482 14.2603C11.4508 14.5586 11.5719 14.8437 11.7847 15.0528L13.3119 16.5528C13.5223 16.7595 13.8054 16.8753 14.1003 16.8753C14.3953 16.8753 14.6784 16.7595 14.8888 16.5528L23.2888 8.30282C23.3942 8.19929 23.4781 8.076 23.5359 7.94002C23.5936 7.80403 23.624 7.658 23.6253 7.51027C23.6266 7.36253 23.5988 7.21599 23.5435 7.07901C23.4881 6.94202 23.4064 6.81727 23.3028 6.71189V6.70907Z" fill="#00C871" fill-opacity="0.36"/>
</svg>
