<svg width="24" height="24" viewBox="0 0 24 24" fill="none" xmlns="http://www.w3.org/2000/svg">
<path d="M21.7949 7.54695L9.79492 19.547C9.6904 19.6518 9.56621 19.735 9.42947 19.7918C9.29272 19.8486 9.14611 19.8778 8.99804 19.8778C8.84998 19.8778 8.70337 19.8486 8.56662 19.7918C8.42988 19.735 8.30569 19.6518 8.20117 19.547L2.95117 14.297C2.84652 14.1923 2.76351 14.0681 2.70688 13.9313C2.65024 13.7946 2.62109 13.6481 2.62109 13.5001C2.62109 13.3521 2.65024 13.2055 2.70688 13.0688C2.76351 12.9321 2.84652 12.8078 2.95117 12.7032C3.05582 12.5986 3.18005 12.5155 3.31678 12.4589C3.45351 12.4023 3.60005 12.3731 3.74805 12.3731C3.89604 12.3731 4.04258 12.4023 4.17931 12.4589C4.31604 12.5155 4.44027 12.5986 4.54492 12.7032L8.99898 17.1573L20.203 5.95508C20.4144 5.74373 20.701 5.625 20.9999 5.625C21.2988 5.625 21.5854 5.74373 21.7968 5.95508C22.0081 6.16642 22.1269 6.45307 22.1269 6.75195C22.1269 7.05084 22.0081 7.33748 21.7968 7.54883L21.7949 7.54695Z" fill="#2DDF9F"/>
</svg>
