<svg xmlns="http://www.w3.org/2000/svg" width="24" height="24" viewBox="0 0 24 24" fill="none">
<path d="M22.1238 12.8437C21.9583 14.7676 21.2468 16.6041 20.073 18.1373C18.8992 19.6704 17.3119 20.8365 15.4979 21.4982C13.6839 22.1599 11.7187 22.2898 9.83341 21.8726C7.94811 21.4553 6.2212 20.5083 4.85583 19.143C3.49047 17.7776 2.54346 16.0507 2.12622 14.1654C1.70897 12.2801 1.83886 10.3148 2.50058 8.50085C3.16231 6.68686 4.32836 5.0996 5.86153 3.9258C7.39471 2.752 9.23123 2.0405 11.155 1.875C11.4534 1.85013 11.7494 1.94481 11.978 2.13821C12.2066 2.33161 12.3489 2.60788 12.3738 2.90625C12.3987 3.20461 12.304 3.50064 12.1106 3.7292C11.9172 3.95776 11.6409 4.10013 11.3425 4.125C9.8457 4.25336 8.41666 4.80661 7.2236 5.71965C6.03054 6.63268 5.12309 7.86749 4.60805 9.27879C4.09301 10.6901 3.9918 12.2191 4.31634 13.686C4.64087 15.1529 5.37765 16.4965 6.43996 17.5588C7.50228 18.6211 8.84592 19.3579 10.3128 19.6825C11.7797 20.007 13.3087 19.9058 14.72 19.3907C16.1313 18.8757 17.3661 17.9683 18.2791 16.7752C19.1922 15.5821 19.7454 14.1531 19.8738 12.6562C19.8861 12.5085 19.9274 12.3646 19.9953 12.2329C20.0632 12.1011 20.1564 11.984 20.2696 11.8882C20.3828 11.7924 20.5137 11.7199 20.6549 11.6748C20.7961 11.6296 20.9448 11.6127 21.0925 11.625C21.2403 11.6373 21.3841 11.6786 21.5159 11.7465C21.6477 11.8144 21.7648 11.9076 21.8606 12.0208C21.9563 12.134 22.0289 12.2649 22.074 12.4061C22.1192 12.5473 22.1361 12.696 22.1238 12.8437ZM10.8738 7.125V12C10.8738 12.2984 10.9923 12.5845 11.2033 12.7955C11.4143 13.0065 11.7004 13.125 11.9988 13.125H16.8738C17.1722 13.125 17.4583 13.0065 17.6693 12.7955C17.8803 12.5845 17.9988 12.2984 17.9988 12C17.9988 11.7016 17.8803 11.4155 17.6693 11.2045C17.4583 10.9935 17.1722 10.875 16.8738 10.875H13.1238V7.125C13.1238 6.82663 13.0053 6.54048 12.7943 6.3295C12.5833 6.11852 12.2972 6 11.9988 6C11.7004 6 11.4143 6.11852 11.2033 6.3295C10.9923 6.54048 10.8738 6.82663 10.8738 7.125ZM19.4988 9C19.7955 9 20.0855 8.91202 20.3321 8.7472C20.5788 8.58238 20.7711 8.34811 20.8846 8.07402C20.9981 7.79993 21.0278 7.49833 20.97 7.20736C20.9121 6.91639 20.7692 6.64912 20.5595 6.43934C20.3497 6.22956 20.0824 6.0867 19.7914 6.02882C19.5005 5.97094 19.1989 6.00065 18.9248 6.11418C18.6507 6.22771 18.4164 6.41997 18.2516 6.66664C18.0868 6.91331 17.9988 7.20332 17.9988 7.5C17.9988 7.89782 18.1568 8.27935 18.4381 8.56066C18.7194 8.84196 19.101 9 19.4988 9ZM16.4988 6C16.7955 6 17.0855 5.91202 17.3321 5.7472C17.5788 5.58238 17.7711 5.34811 17.8846 5.07402C17.9981 4.79993 18.0278 4.49833 17.97 4.20736C17.9121 3.91639 17.7692 3.64911 17.5595 3.43934C17.3497 3.22956 17.0824 3.0867 16.7914 3.02882C16.5005 2.97094 16.1989 3.00065 15.9248 3.11418C15.6507 3.22771 15.4164 3.41997 15.2516 3.66664C15.0868 3.91331 14.9988 4.20332 14.9988 4.5C14.9988 4.89782 15.1568 5.27935 15.4381 5.56066C15.7194 5.84196 16.101 6 16.4988 6Z" fill="#2DDF9F"/>
</svg>
