<svg width="18" height="18" viewBox="0 0 18 18" fill="none" xmlns="http://www.w3.org/2000/svg">
<path d="M14.6577 13.4645C14.8162 13.623 14.9053 13.838 14.9053 14.0622C14.9053 14.2863 14.8162 14.5013 14.6577 14.6598C14.4992 14.8183 14.2842 14.9074 14.0601 14.9074C13.8359 14.9074 13.6209 14.8183 13.4624 14.6598L8.99826 10.1943L4.53271 14.6584C4.37421 14.8169 4.15922 14.906 3.93506 14.906C3.71089 14.906 3.49591 14.8169 3.3374 14.6584C3.17889 14.4999 3.08984 14.2849 3.08984 14.0608C3.08984 13.8366 3.17889 13.6216 3.3374 13.4631L7.80295 8.99896L3.33881 4.53342C3.1803 4.37491 3.09125 4.15993 3.09125 3.93576C3.09125 3.7116 3.1803 3.49661 3.33881 3.3381C3.49732 3.1796 3.7123 3.09055 3.93646 3.09055C4.16063 3.09055 4.37561 3.1796 4.53412 3.3381L8.99826 7.80365L13.4638 3.3374C13.6223 3.17889 13.8373 3.08984 14.0615 3.08984C14.2856 3.08984 14.5006 3.17889 14.6591 3.3374C14.8176 3.49591 14.9067 3.71089 14.9067 3.93506C14.9067 4.15922 14.8176 4.37421 14.6591 4.53271L10.1936 8.99896L14.6577 13.4645Z" fill="#CBD5E1"/>
</svg>
