<svg width="20" height="20" viewBox="0 0 20 20" fill="none" xmlns="http://www.w3.org/2000/svg">
<path d="M8.43693 10.6247C8.43693 10.8719 8.36362 11.1136 8.22627 11.3191C8.08891 11.5247 7.89369 11.6849 7.66528 11.7795C7.43688 11.8741 7.18554 11.8989 6.94307 11.8506C6.70059 11.8024 6.47786 11.6834 6.30305 11.5085C6.12823 11.3337 6.00918 11.111 5.96095 10.8685C5.91272 10.626 5.93747 10.3747 6.03208 10.1463C6.12669 9.9179 6.28691 9.72267 6.49247 9.58532C6.69803 9.44797 6.9397 9.37466 7.18693 9.37466C7.51845 9.37466 7.83639 9.50635 8.07081 9.74077C8.30523 9.97519 8.43693 10.2931 8.43693 10.6247ZM12.8119 9.37466C12.5647 9.37466 12.323 9.44797 12.1175 9.58532C11.9119 9.72267 11.7517 9.9179 11.6571 10.1463C11.5625 10.3747 11.5377 10.626 11.5859 10.8685C11.6342 11.111 11.7532 11.3337 11.928 11.5085C12.1029 11.6834 12.3256 11.8024 12.5681 11.8506C12.8105 11.8989 13.0619 11.8741 13.2903 11.7795C13.5187 11.6849 13.7139 11.5247 13.8513 11.3191C13.9886 11.1136 14.0619 10.8719 14.0619 10.6247C14.0619 10.2931 13.9302 9.97519 13.6958 9.74077C13.4614 9.50635 13.1434 9.37466 12.8119 9.37466ZM18.7549 15.3559L13.5205 17.677C13.3242 17.7643 13.112 17.8106 12.8971 17.8128C12.6823 17.8151 12.4692 17.7733 12.2711 17.6901C12.0729 17.6069 11.8939 17.484 11.7451 17.3289C11.5963 17.1739 11.4808 16.9901 11.4057 16.7887L10.7385 14.9817C10.494 14.9926 10.2486 15.0004 10.0002 15.0004C9.75177 15.0004 9.50646 14.9926 9.26193 14.9817L8.59318 16.7887C8.51773 16.9899 8.40197 17.1735 8.25301 17.3284C8.10406 17.4832 7.92504 17.606 7.72694 17.6891C7.52884 17.7723 7.31584 17.8141 7.10099 17.812C6.88615 17.81 6.674 17.764 6.47755 17.677L1.24318 15.3559C0.905805 15.2077 0.631943 14.9446 0.470297 14.6134C0.30865 14.2823 0.269698 13.9045 0.360368 13.5473L2.6674 4.45278C2.74269 4.15732 2.90278 3.89034 3.12795 3.68475C3.35311 3.47916 3.63351 3.34394 3.93459 3.29575L6.75177 2.83247C7.13949 2.77046 7.53641 2.85477 7.86544 3.06903C8.19448 3.28328 8.43213 3.61218 8.53224 3.99185L8.87677 5.352C9.24709 5.32622 9.62052 5.31216 9.99943 5.31216C10.3783 5.31216 10.7518 5.32622 11.1221 5.352L11.4666 3.99185C11.5666 3.61209 11.8042 3.28308 12.1333 3.0688C12.4623 2.85452 12.8594 2.77028 13.2471 2.83247L16.0643 3.29575C16.3653 3.34394 16.6457 3.47916 16.8709 3.68475C17.0961 3.89034 17.2562 4.15732 17.3315 4.45278L19.6385 13.545C19.7297 13.9026 19.691 14.281 19.5291 14.6126C19.3673 14.9443 19.0929 15.2077 18.7549 15.3559ZM17.7557 13.7497L15.5643 5.11372L13.2151 4.72778L12.9932 5.60044C13.2197 5.64575 13.4447 5.69419 13.6658 5.75044C13.787 5.77877 13.9014 5.83095 14.0022 5.90393C14.103 5.97691 14.1883 6.06924 14.253 6.17553C14.3178 6.28181 14.3607 6.39993 14.3794 6.52298C14.398 6.64604 14.3919 6.77157 14.3615 6.89227C14.3312 7.01296 14.277 7.12639 14.2023 7.22595C14.1277 7.3255 14.0339 7.40919 13.9265 7.47213C13.8191 7.53506 13.7003 7.57599 13.5769 7.59252C13.4536 7.60905 13.3282 7.60085 13.208 7.56841C12.1582 7.30999 11.0806 7.18194 9.99943 7.18716C8.9183 7.18194 7.84064 7.30999 6.79084 7.56841C6.55142 7.62438 6.2996 7.58405 6.08963 7.45612C5.87966 7.32818 5.72836 7.12289 5.66832 6.88446C5.60827 6.64603 5.6443 6.39356 5.76863 6.18144C5.89297 5.96932 6.09565 5.81454 6.33302 5.75044C6.55412 5.69419 6.77912 5.64575 7.00568 5.60044L6.78459 4.72778L4.43459 5.11372L2.24318 13.7497L6.94787 15.8356L7.33849 14.7754C6.99709 14.7161 6.66115 14.6465 6.33224 14.5637C6.21282 14.5337 6.10049 14.4804 6.00166 14.4069C5.90284 14.3334 5.81945 14.2412 5.75626 14.1355C5.62865 13.922 5.59106 13.6666 5.65177 13.4254C5.71248 13.1843 5.86652 12.9771 6.07998 12.8495C6.29345 12.7218 6.54887 12.6843 6.79005 12.745C7.84018 13.0029 8.9181 13.1304 9.99943 13.1247C11.0806 13.1299 12.1582 13.0018 13.208 12.7434C13.4492 12.6827 13.7046 12.7203 13.9181 12.8479C14.1316 12.9755 14.2856 13.1827 14.3463 13.4239C14.407 13.6651 14.3694 13.9205 14.2418 14.1339C14.1142 14.3474 13.907 14.5014 13.6658 14.5622C13.3369 14.645 13.001 14.7145 12.6596 14.7739L13.0502 15.834L17.7557 13.7497Z" fill="white"/>
</svg>
