<svg width="20" height="20" viewBox="0 0 20 20" fill="none" xmlns="http://www.w3.org/2000/svg">
<path d="M16.6109 5.87268C16.7906 5.23234 16.8401 4.56248 16.7565 3.90269C16.6729 3.2429 16.4579 2.60656 16.1242 2.03127C16.042 1.88878 15.9236 1.77045 15.7811 1.68817C15.6387 1.60588 15.477 1.56255 15.3125 1.56252C14.5622 1.56041 13.8211 1.72796 13.1446 2.05265C12.4682 2.37734 11.8739 2.85077 11.4062 3.43752H9.84375C9.37608 2.85077 8.7818 2.37734 8.10536 2.05265C7.42892 1.72796 6.68783 1.56041 5.9375 1.56252C5.77296 1.56255 5.61134 1.60588 5.46885 1.68817C5.32637 1.77045 5.20805 1.88878 5.12578 2.03127C4.79209 2.60656 4.57709 3.2429 4.49349 3.90269C4.40989 4.56248 4.45939 5.23234 4.63906 5.87268C4.26538 6.56494 4.0674 7.33836 4.0625 8.12502V8.75002C4.06397 9.79928 4.41685 10.8178 5.06483 11.6431C5.71281 12.4683 6.61855 13.0528 7.6375 13.3031C7.34202 13.8198 7.18688 14.4048 7.1875 15V15.3125H5.9375C5.5231 15.3125 5.12567 15.1479 4.83265 14.8549C4.53962 14.5618 4.375 14.1644 4.375 13.75C4.37397 12.8387 4.01147 11.9649 3.36704 11.3205C2.72261 10.676 1.84886 10.3136 0.9375 10.3125C0.68886 10.3125 0.450403 10.4113 0.274587 10.5871C0.098772 10.7629 0 11.0014 0 11.25C0 11.4987 0.098772 11.7371 0.274587 11.9129C0.450403 12.0887 0.68886 12.1875 0.9375 12.1875C1.3519 12.1875 1.74933 12.3521 2.04235 12.6452C2.33538 12.9382 2.5 13.3356 2.5 13.75C2.50103 14.6614 2.86353 15.5351 3.50796 16.1796C4.15239 16.824 5.02614 17.1865 5.9375 17.1875H7.1875V18.125C7.1875 18.3737 7.28627 18.6121 7.46209 18.7879C7.6379 18.9637 7.87636 19.0625 8.125 19.0625C8.37364 19.0625 8.6121 18.9637 8.78791 18.7879C8.96373 18.6121 9.0625 18.3737 9.0625 18.125V15C9.0625 14.5856 9.22712 14.1882 9.52015 13.8952C9.81317 13.6021 10.2106 13.4375 10.625 13.4375C11.0394 13.4375 11.4368 13.6021 11.7299 13.8952C12.0229 14.1882 12.1875 14.5856 12.1875 15V18.125C12.1875 18.3737 12.2863 18.6121 12.4621 18.7879C12.6379 18.9637 12.8764 19.0625 13.125 19.0625C13.3736 19.0625 13.6121 18.9637 13.7879 18.7879C13.9637 18.6121 14.0625 18.3737 14.0625 18.125V15C14.0631 14.4048 13.908 13.8198 13.6125 13.3031C14.6315 13.0528 15.5372 12.4683 16.1852 11.6431C16.8331 10.8178 17.186 9.79928 17.1875 8.75002V8.12502C17.1826 7.33836 16.9846 6.56494 16.6109 5.87268ZM15.3125 8.75002C15.3125 9.49594 15.0162 10.2113 14.4887 10.7388C13.9613 11.2662 13.2459 11.5625 12.5 11.5625H8.75C8.00408 11.5625 7.28871 11.2662 6.76126 10.7388C6.23382 10.2113 5.9375 9.49594 5.9375 8.75002V8.12502C5.94551 7.56635 6.11155 7.02137 6.41641 6.55314C6.51358 6.42733 6.57611 6.27826 6.59777 6.12077C6.61943 5.96328 6.59946 5.80286 6.53984 5.65549C6.27092 4.96055 6.25983 4.19227 6.50859 3.48986C6.92961 3.56743 7.33012 3.73095 7.68512 3.97021C8.04012 4.20947 8.34198 4.51935 8.57187 4.88049C8.65663 5.01288 8.77332 5.12184 8.9112 5.19733C9.04908 5.27282 9.20374 5.31244 9.36094 5.31252H11.8883C12.0456 5.31257 12.2004 5.27302 12.3385 5.19752C12.4765 5.12202 12.5933 5.01299 12.6781 4.88049C12.9079 4.51925 13.2097 4.20931 13.5648 3.97003C13.9198 3.73076 14.3203 3.56729 14.7414 3.48986C14.9902 4.19227 14.9791 4.96055 14.7102 5.65549C14.653 5.80397 14.6345 5.96457 14.6565 6.12215C14.6785 6.27974 14.7403 6.42914 14.8359 6.55627C15.1395 7.02381 15.3047 7.56764 15.3125 8.12502V8.75002Z" fill="white"/>
</svg>
