<svg width="643" height="443" viewBox="0 0 643 443" fill="none" xmlns="http://www.w3.org/2000/svg">
<g clip-path="url(#clip0_316_4089)">
<path d="M322 -4V448M-80.0002 222H724M371.894 448H270.485L279.639 283.288C281.909 242.461 281.909 201.539 279.639 160.712L270.485 -4H371.894L362.74 160.712C360.47 201.539 360.47 242.461 362.74 283.288L371.894 448ZM419.347 448H223.028L234.527 323.867C240.804 256.101 240.804 187.899 234.527 120.128L223.028 -4H419.347L407.848 120.133C401.571 187.899 401.571 256.101 407.848 323.872L419.347 448.004V448ZM467.126 448H175.253L186.145 364.037C198.376 269.74 198.376 174.26 186.145 79.959L175.253 -4H467.126L456.234 79.9632C444.003 174.26 444.003 269.74 456.234 364.041L467.126 448.004V448ZM508.616 448H133.759L141.154 403.641C161.208 283.376 161.208 160.62 141.154 40.3546L133.759 -4H508.62L501.225 40.3588C481.171 160.624 481.171 283.38 501.225 403.645L508.62 448.004L508.616 448ZM551.366 448H91.0089L92.1228 442.542C121.783 297.011 121.783 146.993 92.1228 1.46167L91.0089 -3.99581H551.366L550.252 1.46167C520.592 146.993 520.592 297.011 550.252 442.542L551.366 448ZM594.116 448H48.2587L49.3726 442.542C79.0326 297.011 79.0326 146.993 49.3726 1.46167L48.2587 -3.99581H594.116L593.002 1.46167C563.342 146.993 563.342 297.011 593.002 442.542L594.116 448ZM636.866 448H5.5085L6.62237 442.542C36.2824 297.011 36.2824 146.993 6.62237 1.46167L5.5085 -3.99581H636.866L635.752 1.46167C606.092 146.993 606.092 297.011 635.752 442.542L636.866 448ZM679.616 448H-37.2375L-36.1236 442.542C-6.46357 297.011 -6.46357 146.993 -36.1236 1.46167L-37.2375 -3.99581H679.616L678.503 1.46167C648.842 146.993 648.842 297.011 678.503 442.542L679.616 448ZM724 448H-81.625L-80.5111 442.542C-50.8469 297.007 -50.8469 146.993 -80.5111 1.45748L-81.625 -4H724L722.886 1.45748C693.226 146.989 693.226 297.007 722.886 442.538L724 447.996V448ZM-81.625 250.342L322 241.972L724 250.342V193.658L322 202.028L-81.625 193.658V250.342ZM-81.625 279.919L322 271.548L724 279.919V164.081L322 172.87L-81.625 164.081V279.919ZM-81.625 305.783L184.599 294.743C276.159 290.947 367.836 290.951 459.396 294.764L724 305.783V138.217L459.396 149.236C367.836 153.049 276.159 153.057 184.599 149.257L-81.625 138.217V305.783ZM-81.625 332.819L116.121 320.515C253.241 311.986 390.758 312.002 527.874 320.565L724 332.815V111.18L527.874 123.431C390.758 131.998 253.241 132.014 116.121 123.481L-81.625 111.18V332.819ZM-81.625 357.508L47.9069 346.765C230.319 331.631 413.677 331.664 596.084 346.857L724 357.512V86.4921L562.019 98.2985C402.22 109.946 241.784 109.967 81.9764 98.3696L-81.625 86.4921V357.508ZM-81.625 385.72L-19.9599 379.325C207.4 355.75 436.591 355.796 663.938 379.468L723.996 385.72V58.2797L630.057 67.0812C425.129 86.2828 218.857 86.3205 13.9212 67.1942L-81.625 58.2797V385.72ZM-81.625 417.461L-19.9599 411.066C207.4 387.491 436.591 387.537 663.938 411.208L723.996 417.461V26.5393L630.057 35.3407C425.129 54.5424 218.857 54.58 13.9212 35.4537L-81.625 26.5393V417.461Z" stroke="#5FEFBA" stroke-opacity="0.1" stroke-width="0.880776" stroke-miterlimit="10"/>
</g>
<defs>
<clipPath id="clip0_316_4089">
<rect width="804" height="452" fill="white" transform="translate(-80 -4)"/>
</clipPath>
</defs>
</svg>
