<svg width="73" height="22" viewBox="0 0 73 22" fill="none" xmlns="http://www.w3.org/2000/svg">
<path d="M13.4124 1.74387C12.2969 0.628307 10.771 0 9.2002 0H5.85032C4.23147 0 2.76967 0.660364 1.71501 1.71502C0.660354 2.76968 0 4.23145 0 5.83427C0 9.05594 2.60939 11.6653 5.83106 11.6653H6.03623C7.498 11.6653 8.91168 12.2456 9.9503 13.2842L13.9446 17.2784C14.8261 18.1439 15.8455 18.8332 16.9643 19.2916C18.0798 19.7468 19.2916 20 20.5161 20C22.3562 20 24.1481 19.4486 25.674 18.4421L28.3314 16.6661L13.4124 1.74707V1.74387ZM5.85032 8.11348C4.46868 8.11348 3.3499 6.99471 3.3499 5.61308C3.3499 4.23145 4.46868 3.11268 5.85032 3.11268C7.23195 3.11268 8.35069 4.23145 8.35069 5.61308C8.35069 6.99471 7.23195 8.11348 5.85032 8.11348Z" fill="#00C871"/>
<path d="M22 3.33387L35.2521 16.586C37.4384 18.7722 40.3779 19.9808 43.4585 19.9808C45.7538 19.9808 47.9849 19.3044 49.9051 18.0317L51.9792 16.6469L38.7271 3.39478C36.5408 1.22456 33.5852 0 30.5206 0C28.2253 0 25.9942 0.676391 24.074 1.94903L22 3.33387Z" fill="#00C871"/>
<path d="M46.4141 3.11338L58.0794 15.298L68.0938 8.11418L63.2373 3.39868C61.0061 1.22846 58.0025 0.00390625 54.8738 0.00390625C52.6266 0.00390625 50.4083 0.632208 48.5074 1.82791L46.4333 3.11658H46.4173L46.4141 3.11338Z" fill="#00C871"/>
</svg>
