<svg width="20" height="20" viewBox="0 0 20 20" fill="none" xmlns="http://www.w3.org/2000/svg">
<path d="M18.0858 1.80899C17.9458 1.68832 17.7756 1.60811 17.5935 1.577C17.4114 1.54589 17.2242 1.56505 17.0522 1.63242L1.21936 7.82852C0.931986 7.94044 0.688737 8.14266 0.526212 8.40475C0.363687 8.66685 0.290677 8.97463 0.318169 9.2818C0.34566 9.58897 0.472166 9.8789 0.678651 10.108C0.885135 10.337 1.16043 10.4928 1.46311 10.552L5.31311 11.3074V15.6246C5.3131 15.9361 5.40619 16.2405 5.58043 16.4987C5.75466 16.7569 6.00209 16.9571 6.29095 17.0736C6.57981 17.1902 6.89691 17.2178 7.20155 17.1528C7.50618 17.0878 7.78444 16.9333 8.00061 16.709L9.7717 14.8723L12.6842 17.4215C12.8874 17.6002 13.1334 17.723 13.3983 17.778C13.6632 17.833 13.9379 17.8183 14.1954 17.7353C14.4529 17.6523 14.6845 17.5039 14.8674 17.3045C15.0503 17.1052 15.1783 16.8617 15.2389 16.598L18.4123 2.80508C18.4536 2.62505 18.445 2.43716 18.3875 2.26165C18.3299 2.08613 18.2256 1.92963 18.0858 1.80899ZM10.892 6.05586L6.03342 9.53789L3.34357 9.01055L10.892 6.05586ZM7.18811 14.848V12.6051L8.35998 13.6324L7.18811 14.848ZM13.5287 15.6699L7.75686 10.6098L16.0623 4.65821L13.5287 15.6699Z" fill="white"/>
</svg>
