<svg xmlns="http://www.w3.org/2000/svg" width="99" height="20" viewBox="0 0 99 20" fill="none">
<path d="M34.669 0.275391L27.3986 19.7176H21.7246L17.3137 7.90162L12.9476 19.7176H7.22874L0 0.275391H5.67401L10.085 12.6908L14.4959 0.275391H20.1699L24.5809 12.6908L28.947 0.275391H34.6658H34.669Z" fill="white"/>
<path d="M44.6769 0.275391C46.2284 0.275391 47.6069 0.53505 48.8154 1.02872C50.0239 1.52559 51.0369 2.2148 51.8544 3.09956C52.675 3.96188 53.3001 4.9973 53.7072 6.18339C54.1368 7.36948 54.3548 8.64211 54.3548 10.0205C54.3548 11.399 54.1175 12.6716 53.6655 13.8577C53.2136 15.0438 52.566 16.0792 51.7261 16.9415C50.8862 17.8038 49.8733 18.4931 48.6872 18.9899C47.5011 19.4868 46.1643 19.724 44.6769 19.724C43.1895 19.724 41.8976 19.4868 40.7115 19.0124C39.5254 18.5379 38.5125 17.8487 37.695 16.9864C36.8776 16.1241 36.2301 15.0887 35.7556 13.9026C35.3036 12.7165 35.0664 11.4246 35.0664 10.0237C35.0664 8.62288 35.2812 7.39512 35.6915 6.20904C36.1018 5.02295 36.7269 3.98752 37.5444 3.12521C38.3618 2.26289 39.378 1.57368 40.5609 1.05436C41.7694 0.55749 43.1254 0.301036 44.6769 0.301036V0.278599V0.275391ZM44.6769 14.4379C45.1513 14.4379 45.6033 14.3097 46.0361 14.0725C46.4657 13.8128 46.8343 13.489 47.1357 13.0595C47.437 12.6299 47.6967 12.1555 47.8698 11.6137C48.0653 11.0752 48.1486 10.5367 48.1486 9.99811C48.1486 9.45956 48.0621 8.81202 47.9114 8.27347C47.7608 7.73492 47.546 7.26049 47.2446 6.87261C46.9433 6.46229 46.5971 6.16095 46.1675 5.92373C45.738 5.68651 45.2411 5.57753 44.6801 5.57753C44.1191 5.57753 43.6255 5.70575 43.1927 5.94297C42.7631 6.18019 42.4169 6.50395 42.1156 6.91427C41.8143 7.32459 41.5995 7.7766 41.4489 8.31515C41.2982 8.85369 41.2116 9.41468 41.2116 9.9949C41.2116 10.5751 41.2982 11.1361 41.4905 11.6747C41.6861 12.2132 41.9201 12.6876 42.2438 13.0755C42.5676 13.4858 42.9331 13.8096 43.3434 14.0661C43.7537 14.3257 44.2057 14.4315 44.6801 14.4315L44.6769 14.4379Z" fill="white"/>
<path d="M73.662 19.708C72.3092 19.7304 71.0013 19.708 69.7383 19.6631C68.4753 19.6182 67.3437 19.397 66.3692 18.9995C65.3722 18.602 64.5965 17.9353 63.997 17.0056C63.3976 16.076 63.109 14.7232 63.109 12.9505H61.16V19.708H55.8867V0.275391H67.3213C68.1868 0.275391 69.0267 0.4517 69.8024 0.785086C70.5782 1.11847 71.2418 1.58329 71.8188 2.13787C72.3958 2.71488 72.8382 3.37845 73.1716 4.15422C73.5049 4.92998 73.6812 5.75063 73.6812 6.63538C73.6812 8.31834 73.1491 9.716 72.0848 10.822C71.0206 11.9311 69.3825 12.5722 67.1866 12.7261C67.1866 13.5019 67.4078 14.1013 67.8277 14.4988C68.2477 14.8963 68.7798 15.1848 69.4242 15.3643C70.0653 15.5407 70.7545 15.6304 71.5303 15.6304H73.6812V19.708H73.6588H73.662ZM64.8433 9.25119C65.1542 9.25119 65.4652 9.18387 65.7729 9.07488C66.0839 8.94345 66.35 8.78637 66.616 8.56519C66.8821 8.344 67.0808 8.07792 67.2379 7.76697C67.3918 7.43359 67.4815 7.08097 67.4815 6.68027C67.4815 5.94938 67.2155 5.30504 66.7058 4.79535C66.1961 4.28565 65.5742 4.01958 64.8657 4.01958H61.1664V9.27042H64.8657L64.8433 9.24798V9.25119Z" fill="white"/>
<path d="M98.9149 0.275391V19.7176H93.6384V10.495L89.2723 19.7176H84.8613L80.4952 10.495V19.7176H75.2188V0.275391H80.5401L87.0572 14.5309L93.6191 0.275391H98.9405H98.9181H98.9149Z" fill="white"/>
</svg>
