<svg width="119" height="24" viewBox="0 0 119 24" fill="none" xmlns="http://www.w3.org/2000/svg">
<path d="M34.669 0L27.3986 19.4422H21.7246L17.3137 7.62623L12.9476 19.4422H7.22874L0 0H5.67401L10.085 12.4155L14.4959 0H20.1699L24.5809 12.4155L28.947 0H34.6658H34.669Z" fill="white"/>
<path d="M51.6925 0C53.2441 0 54.6225 0.259659 55.831 0.753328C57.0396 1.2502 58.0525 1.93941 58.87 2.82417C59.6906 3.68649 60.3157 4.72191 60.7228 5.908C61.1524 7.09409 61.3704 8.36672 61.3704 9.74515C61.3704 11.1236 61.1332 12.3962 60.6812 13.5823C60.2292 14.7684 59.5816 15.8038 58.7417 16.6661C57.9019 17.5284 56.8889 18.2177 55.7028 18.7145C54.5167 19.2114 53.18 19.4486 51.6925 19.4486C50.2051 19.4486 48.9132 19.2114 47.7272 18.737C46.5411 18.2625 45.5281 17.5733 44.7106 16.711C43.8932 15.8487 43.2457 14.8133 42.7713 13.6272C42.3193 12.4411 42.082 11.1492 42.082 9.74836C42.082 8.34749 42.2968 7.11973 42.7071 5.93365C43.1174 4.74756 43.7425 3.71213 44.56 2.84982C45.3774 1.9875 46.3936 1.29829 47.5765 0.778974C48.785 0.282099 50.141 0.0256457 51.6925 0.0256457V0.00320877V0ZM51.6925 14.1625C52.167 14.1625 52.619 14.0343 53.0517 13.7971C53.4813 13.5374 53.8499 13.2137 54.1513 12.7841C54.4526 12.3545 54.7123 11.8801 54.8854 11.3384C55.0809 10.7998 55.1643 10.2613 55.1643 9.72272C55.1643 9.18417 55.0777 8.53663 54.9271 7.99808C54.7764 7.45953 54.5616 6.9851 54.2603 6.59722C53.9589 6.18689 53.6127 5.88556 53.1832 5.64834C52.7536 5.41112 52.2567 5.30213 51.6957 5.30213C51.1348 5.30213 50.6411 5.43036 50.2083 5.66758C49.7788 5.9048 49.4326 6.22856 49.1312 6.63888C48.8299 7.0492 48.6151 7.50121 48.4645 8.03976C48.3138 8.5783 48.2273 9.13929 48.2273 9.71951C48.2273 10.2997 48.3138 10.8607 48.5061 11.3993C48.7017 11.9378 48.9357 12.4122 49.2595 12.8001C49.5832 13.2104 49.9487 13.5342 50.359 13.7907C50.7693 14.0503 51.2213 14.1561 51.6957 14.1561L51.6925 14.1625Z" fill="white"/>
<path d="M84.8417 19.4326C83.4889 19.455 82.181 19.4326 80.918 19.3877C79.655 19.3428 78.5234 19.1217 77.5489 18.7242C76.5519 18.3267 75.7762 17.6599 75.1767 16.7302C74.5772 15.8006 74.2887 14.4478 74.2887 12.6751H72.3397V19.4326H67.0664V0H78.5009C79.3665 0 80.2063 0.176309 80.9821 0.509696C81.7579 0.843083 82.4215 1.3079 82.9985 1.86248C83.5755 2.43949 84.0179 3.10306 84.3512 3.87883C84.6846 4.65459 84.8609 5.47523 84.8609 6.35999C84.8609 8.04295 84.3288 9.44061 83.2645 10.5466C82.2003 11.6557 80.5622 12.2968 78.3663 12.4507C78.3663 13.2265 78.5875 13.8259 79.0074 14.2234C79.4274 14.6209 79.9595 14.9094 80.6039 15.089C81.245 15.2653 81.9342 15.355 82.71 15.355H84.8609V19.4326H84.8385H84.8417ZM76.023 8.9758C76.3339 8.9758 76.6449 8.90848 76.9526 8.79949C77.2636 8.66806 77.5297 8.51098 77.7957 8.28979C78.0618 8.06861 78.2605 7.80253 78.4176 7.49158C78.5715 7.1582 78.6612 6.80558 78.6612 6.40488C78.6612 5.67399 78.3951 5.02965 77.8854 4.51996C77.3758 4.01026 76.7539 3.74419 76.0454 3.74419H72.3461V8.99503H76.0454L76.023 8.97259V8.9758Z" fill="white"/>
<path d="M113.958 0V19.4422H108.681V10.2196L104.315 19.4422H99.9043L95.5382 10.2196V19.4422H90.2617V0H95.5831L102.1 14.2555L108.662 0H113.983H113.961H113.958Z" fill="white"/>
</svg>
