<svg width="15" height="16" viewBox="0 0 15 16" fill="none" xmlns="http://www.w3.org/2000/svg">
<path d="M14.2357 14.1844L9.47006 6.7L14.1357 1.56797C14.2994 1.38343 14.3838 1.14179 14.3705 0.895455C14.3573 0.649118 14.2475 0.417932 14.0649 0.252019C13.8823 0.0861053 13.6417 -0.00116242 13.3952 0.0091356C13.1488 0.0194336 12.9163 0.126467 12.7482 0.307031L8.43022 5.06016L5.48568 0.434375C5.40106 0.301325 5.28425 0.191768 5.14605 0.115842C5.00786 0.0399156 4.85274 7.27025e-05 4.69506 0H0.94506C0.777121 7.74095e-05 0.612287 0.0452646 0.467786 0.130838C0.323285 0.216412 0.204424 0.33923 0.123626 0.486454C0.0428279 0.633679 0.0030606 0.799904 0.0084803 0.967755C0.0139 1.13561 0.0643078 1.29892 0.154435 1.44062L4.92006 8.925L0.25131 14.057C0.166778 14.1478 0.10111 14.2545 0.0581116 14.3709C0.0151128 14.4873 -0.00436156 14.611 0.000817229 14.735C0.00599602 14.8589 0.035725 14.9806 0.0882811 15.093C0.140837 15.2054 0.215175 15.3062 0.306986 15.3896C0.398797 15.4731 0.506256 15.5374 0.623133 15.579C0.74001 15.6206 0.863982 15.6386 0.987863 15.632C1.11174 15.6253 1.23307 15.5941 1.34481 15.5402C1.45655 15.4863 1.55648 15.4108 1.63881 15.318L5.9599 10.5648L8.90444 15.1906C8.98906 15.3237 9.10587 15.4332 9.24407 15.5092C9.38226 15.5851 9.53738 15.6249 9.69506 15.625H13.4451C13.613 15.6249 13.7778 15.5797 13.9223 15.4942C14.0668 15.4086 14.1857 15.2858 14.2665 15.1385C14.3473 14.9913 14.3871 14.8251 14.3816 14.6572C14.3762 14.4894 14.3258 14.3261 14.2357 14.1844ZM10.2099 13.75L2.65287 1.875H4.18022L11.7372 13.75H10.2099Z" fill="white"/>
</svg>
